<?xml version="1.0" standalone="no"?>
<!DOCTYPE svg PUBLIC "-//W3C//DTD SVG 20010904//EN"
 "http://www.w3.org/TR/2001/REC-SVG-20010904/DTD/svg10.dtd">
<svg version="1.0" xmlns="http://www.w3.org/2000/svg"
 width="1546.000000pt" height="1546.000000pt" viewBox="0 0 1546.000000 1546.000000"
 preserveAspectRatio="xMidYMid meet">
<metadata>
Created by potrace 1.14, written by Peter Selinger 2001-2017
</metadata>
<g transform="translate(0.000000,1546.000000) scale(0.100000,-0.100000)"
fill="#000000" stroke="none">
<path d="M7379 15456 c-2 -2 -62 -7 -134 -10 -71 -4 -143 -9 -160 -11 -16 -2
-64 -6 -105 -10 -81 -7 -118 -11 -225 -25 -38 -5 -90 -12 -115 -15 -25 -3 -56
-8 -70 -10 -14 -2 -41 -7 -60 -9 -19 -3 -44 -7 -55 -10 -11 -2 -40 -7 -65 -11
-25 -4 -54 -9 -65 -11 -11 -3 -36 -7 -55 -10 -19 -3 -75 -14 -125 -25 -1142
-245 -2160 -710 -3090 -1413 -66 -50 -122 -93 -125 -96 -3 -3 -57 -48 -120
-100 -282 -230 -613 -550 -850 -820 -41 -47 -77 -87 -80 -90 -42 -41 -225
-271 -351 -440 -219 -293 -386 -555 -581 -905 -37 -66 -238 -471 -271 -545
-141 -319 -267 -662 -363 -994 -50 -172 -135 -516 -147 -591 -3 -16 -12 -64
-20 -105 -9 -41 -18 -95 -22 -120 -3 -25 -8 -52 -10 -60 -4 -15 -13 -69 -20
-123 -6 -43 -16 -109 -20 -137 -2 -14 -7 -54 -10 -90 -4 -36 -8 -72 -10 -81
-6 -33 -18 -162 -32 -364 -10 -149 -10 -847 0 -975 23 -280 27 -333 31 -360 3
-14 8 -54 11 -90 4 -36 9 -74 11 -85 2 -11 7 -47 10 -80 4 -33 8 -63 10 -66 2
-4 6 -27 9 -50 3 -24 10 -66 15 -94 5 -27 12 -66 15 -85 4 -19 10 -53 15 -75
5 -22 11 -54 14 -72 5 -28 51 -236 60 -273 2 -8 10 -37 16 -65 84 -345 253
-844 392 -1160 17 -38 40 -90 51 -115 21 -49 133 -286 146 -310 4 -8 34 -64
66 -125 72 -137 128 -236 201 -356 31 -52 65 -109 76 -128 43 -76 297 -449
355 -521 6 -8 53 -69 105 -135 91 -118 113 -146 133 -169 6 -6 32 -38 60 -71
255 -308 640 -691 975 -969 196 -162 661 -506 685 -506 3 0 11 -5 18 -10 37
-33 317 -203 493 -300 203 -112 417 -218 661 -326 18 -8 48 -21 65 -29 18 -7
80 -32 138 -55 58 -22 114 -45 125 -50 46 -21 342 -122 498 -169 248 -75 645
-172 842 -205 259 -44 259 -44 315 -51 25 -3 56 -7 70 -10 29 -5 90 -12 175
-20 33 -3 76 -8 95 -10 19 -2 64 -7 100 -10 36 -3 90 -8 120 -10 30 -3 89 -7
130 -10 41 -3 85 -7 98 -9 13 -3 22 0 22 7 0 8 3 9 8 1 4 -6 52 -12 112 -13
58 -2 121 -4 140 -5 19 -1 45 1 58 6 15 5 21 4 17 -2 -6 -10 5 -9 50 0 6 1 12
1 15 0 19 -7 41 -7 46 1 3 5 13 5 24 -1 13 -7 21 -7 25 0 4 6 12 7 18 3 19
-12 181 -3 189 10 6 9 8 8 8 -2 0 -11 3 -11 17 0 11 10 14 10 9 2 -9 -16 6
-17 22 -1 7 7 12 8 12 2 0 -6 7 -11 15 -11 8 0 15 3 15 7 0 3 16 4 36 2 24 -3
34 -1 30 6 -6 11 12 11 29 0 6 -4 17 -3 25 2 7 4 20 6 28 3 8 -3 18 0 23 8 7
12 9 12 9 0 0 -10 3 -11 14 -2 8 7 17 8 20 3 8 -13 67 -2 59 12 -4 8 -3 8 5 1
12 -11 95 -8 88 4 -2 3 17 6 42 7 26 0 70 4 97 7 92 14 230 38 265 47 19 5 49
11 65 14 17 3 41 7 55 10 14 3 61 13 105 22 142 28 157 32 345 79 102 25 192
48 201 50 26 6 215 63 334 102 99 32 404 143 480 174 17 7 32 13 35 14 63 21
388 170 550 251 209 105 331 173 530 292 129 78 383 244 475 311 112 82 361
271 380 288 11 10 43 36 70 58 28 21 52 42 55 45 3 3 23 20 45 39 264 223 640
597 830 826 28 33 56 66 63 74 8 8 58 69 111 135 565 701 1008 1507 1294 2356
113 334 240 811 263 984 2 21 6 42 8 45 3 4 7 25 10 47 4 22 8 51 11 64 10 52
24 137 30 180 8 57 15 108 20 140 2 14 7 50 10 80 3 30 7 71 10 90 5 34 14
128 20 200 28 324 28 1027 0 1295 -2 22 -7 67 -10 100 -3 33 -7 74 -9 90 -2
17 -7 61 -11 98 -3 37 -8 78 -11 90 -2 12 -6 42 -10 67 -3 25 -7 54 -8 65 -2
11 -6 40 -10 65 -8 53 -33 196 -46 260 -6 25 -12 56 -14 70 -2 14 -10 48 -16
75 -6 28 -14 61 -16 75 -3 14 -16 70 -30 125 -30 120 -33 130 -38 153 -9 40
-27 108 -33 122 -3 8 -7 21 -9 29 -9 48 -87 288 -169 521 -130 370 -400 938
-612 1288 -13 20 -26 44 -30 52 -3 8 -17 29 -30 46 -13 17 -23 34 -23 38 0 4
-8 19 -19 34 -10 15 -65 97 -121 182 -89 134 -334 471 -372 511 -7 8 -26 32
-43 54 -16 21 -36 46 -45 55 -8 9 -33 38 -55 65 -167 207 -579 630 -781 802
-12 10 -48 41 -80 69 -49 43 -140 119 -226 189 -69 56 -283 216 -383 286 -121
85 -168 116 -305 204 -41 26 -86 55 -100 64 -14 8 -34 21 -45 27 -11 6 -60 35
-110 64 -250 147 -482 263 -880 440 -131 58 -517 199 -686 251 -131 39 -406
116 -439 122 -14 3 -61 14 -105 25 -72 19 -345 75 -420 86 -16 3 -70 12 -120
20 -49 9 -112 18 -140 21 -27 3 -57 8 -65 10 -8 2 -42 7 -75 10 -33 3 -76 7
-95 10 -88 10 -141 15 -220 20 -47 4 -103 8 -125 11 -46 6 -851 15 -856 10z"/>
</g>
</svg>
